# xmcd
#
# Track frame offsets: 
#        150
#        16619
#        34133
#        49677
#        63606
#        79923
#        96065
#        114209
#        129858
#        144179
#
# Disc length: 2136 seconds
#
# Revision: 1
# Processed by: cddbd v1.5.2PL0 Copyright (c) Steve Scherf et al.
# Submitted via: ExactAudioCopy v0.95b4
#
DISCID=7208560a
DTITLE=ณิชา ดารินทร์ - ผู้ชาย ป้ายแดง
DYEAR=1900
DGENRE=Country
TTITLE0=ผู้ชายป้ายแดง
TTITLE1=แก้มเปื้อนฟองเบียร์
TTITLE2=ฟ้องย่าโม
TTITLE3=เสียใจจั๊ดนัก
TTITLE4=เบียร์แก้วสุดท้าย
TTITLE5=อยากมีแฟน
TTITLE6=ขอช่างซ่อมใจ
TTITLE7=เขินอยู่ได้
TTITLE8=ทำงี้ได้ไง
TTITLE9=เสือผู้หญิง
EXTD=
EXTT0=
EXTT1=
EXTT2=
EXTT3=
EXTT4=
EXTT5=
EXTT6=
EXTT7=
EXTT8=
EXTT9=
PLAYORDER=
